<svg xmlns="http://www.w3.org/2000/svg" width="500" height="500" viewBox="0 0 500 500" version="1.1">
	<path d="M 255.952 92.342 C 255.651 92.665, 252.726 93.214, 249.452 93.562 C 246.178 93.910, 243.068 94.461, 242.541 94.786 C 242.013 95.111, 239.588 95.254, 237.152 95.104 C 233.099 94.855, 232.769 95.009, 233.268 96.915 C 234.011 99.756, 232.024 100.743, 230.271 98.403 C 228.880 96.546, 228.853 96.549, 229.172 98.500 C 229.405 99.921, 228.977 100.457, 227.694 100.352 C 225.001 100.131, 225.937 103.880, 229.176 106.289 C 232.872 109.038, 241.093 109.764, 243.319 107.538 C 245.545 105.313, 245.504 100.334, 243.250 99.155 C 242.287 98.651, 239.925 98.463, 238 98.736 C 235.611 99.075, 234.817 98.906, 235.500 98.203 C 237.206 96.446, 240.352 96.490, 243.984 98.323 C 246.842 99.764, 247.651 99.842, 248.484 98.754 C 249.043 98.024, 250.243 97.580, 251.150 97.768 C 252.547 98.056, 252.432 98.477, 250.400 100.509 C 248.874 102.035, 248 104.066, 248 106.085 C 248 109.178, 248.096 109.246, 251.624 108.674 C 255.496 108.045, 259 105.529, 259 103.376 C 259 102.622, 259.636 102.307, 260.494 102.636 C 261.753 103.119, 261.660 103.668, 259.900 106.140 C 258.225 108.493, 258.053 109.359, 259.029 110.535 C 260.926 112.820, 262.908 112.292, 266.712 108.488 C 269.485 105.715, 269.983 104.684, 269.075 103.591 C 268.444 102.829, 266.931 102.424, 265.713 102.690 C 263.929 103.080, 263.790 102.966, 265 102.102 C 267.360 100.416, 269.719 100.817, 270.290 103 C 270.728 104.674, 271.654 105, 275.978 105 C 281.021 105, 284 106.484, 284 108.996 C 284 110.062, 285.178 109.905, 290 108.193 C 291.231 107.756, 291.205 108.005, 289.850 109.580 C 287.308 112.536, 284.917 118.914, 284.002 125.176 C 283.362 129.560, 282.186 132.173, 278.836 136.662 C 274.089 143.022, 270.023 150.592, 270.009 153.097 C 270.004 153.975, 269.135 155.692, 268.077 156.911 C 267.019 158.131, 265.844 160.966, 265.464 163.212 C 265.085 165.459, 264.204 168.692, 263.508 170.398 C 262.811 172.104, 261.919 176.171, 261.526 179.435 C 261.132 182.699, 260.351 186.524, 259.790 187.935 C 259.229 189.346, 258.484 194.100, 258.135 198.500 C 257.559 205.751, 257.313 206.474, 255.500 206.225 C 253.656 205.972, 253.638 206.035, 255.271 207.037 C 256.245 207.634, 256.781 208.545, 256.462 209.061 C 256.143 209.578, 256.659 210, 257.608 210 C 258.557 210, 259.076 210.257, 258.761 210.572 C 258.447 210.886, 256.106 210.436, 253.560 209.572 C 247.520 207.521, 232.730 207.489, 226.876 209.513 C 221.867 211.245, 213.263 215.636, 210.896 217.669 C 209.452 218.908, 209.228 218.368, 208.656 212.273 C 207.978 205.056, 203.961 192.712, 199.616 184.500 C 195.950 177.570, 189.851 170.701, 181.409 163.992 C 169.704 154.691, 160.762 151.190, 146.698 150.406 C 136.930 149.861, 136.041 149.988, 125.616 153.425 C 105.763 159.970, 89.953 171.460, 80.069 186.527 C 75.052 194.173, 69.429 207.379, 68.053 214.745 C 67.063 220.045, 65.550 221.497, 60.109 222.367 C 55.626 223.084, 53.715 224.960, 54.173 228.195 C 54.466 230.258, 55.048 230.505, 59.715 230.548 C 62.583 230.574, 65.078 230.799, 65.259 231.048 C 65.441 231.297, 66.336 236.040, 67.249 241.589 C 68.161 247.138, 69.854 254.206, 71.010 257.296 C 73.903 265.028, 81.751 276.753, 89.408 284.784 C 92.930 288.478, 96.867 292.675, 98.156 294.111 C 99.445 295.547, 101.513 297.040, 102.750 297.428 C 103.988 297.817, 105 298.521, 105 298.994 C 105 299.467, 105.787 300.059, 106.750 300.311 C 107.713 300.562, 107.037 300.820, 105.250 300.884 C 103.463 300.948, 102 300.518, 102 299.929 C 102 299.339, 101.289 299.569, 100.419 300.438 C 99.080 301.777, 99.007 302.806, 99.940 307.156 C 103.173 322.232, 116.928 337.462, 135.899 346.972 C 154.503 356.297, 175.186 361.776, 202.252 364.547 C 208.262 365.163, 209.384 366.333, 213.404 376.177 C 219.131 390.199, 223.221 395.081, 239.500 407.321 C 242.800 409.802, 246.912 412.995, 248.637 414.416 C 251.412 416.701, 252.668 417, 259.509 417 C 276.177 417, 303.802 411.250, 322.038 403.985 C 334.221 399.131, 342 395.278, 342 394.098 C 342 392.688, 329.916 381.802, 323.980 377.865 C 320.966 375.865, 314.450 372.403, 309.500 370.171 C 300.635 366.174, 298.661 364.300, 301.207 362.300 C 301.918 361.742, 308.800 359.593, 316.500 357.526 C 362.672 345.129, 392.281 327.490, 405.814 304.319 C 411.900 293.897, 413.233 288.083, 412.844 273.648 C 412.579 263.822, 412.848 260.625, 414.209 257.453 C 415.141 255.279, 417.613 249.048, 419.702 243.607 C 423.205 234.483, 423.905 233.415, 428.720 229.848 C 435.058 225.153, 436 223.525, 436 217.266 C 436 211.728, 434.779 210, 430.865 210 C 424.997 210, 423.248 208.510, 421.987 202.436 C 420.570 195.612, 416.210 185.618, 411.944 179.418 C 404.311 168.324, 390.505 156.317, 378.239 150.106 C 374.939 148.435, 372.691 145.980, 368.274 139.224 C 359.074 125.154, 346.019 113.454, 333.257 107.843 C 318.181 101.215, 303.547 96.740, 289.500 94.462 C 279.583 92.853, 256.818 91.415, 255.952 92.342 M 211.680 102.884 C 212.014 104.160, 212.790 104.606, 214.086 104.267 C 216.853 103.544, 216.470 101, 213.594 101 C 211.729 101, 211.298 101.424, 211.680 102.884 M 217.647 106.712 C 212.841 109.295, 212.817 109.332, 215.147 110.624 C 220.590 113.643, 225.812 111.370, 224.593 106.513 C 223.825 103.455, 223.702 103.458, 217.647 106.712 M 271.635 108.101 C 269.509 109.237, 267.560 110.916, 267.304 111.833 C 267.048 112.750, 264.962 114.400, 262.669 115.500 C 260.376 116.600, 258.366 118.230, 258.201 119.122 C 257.938 120.553, 258.459 120.618, 262.598 119.670 C 265.511 119.004, 267.458 117.963, 267.729 116.928 C 268.032 115.768, 269.658 115.082, 273.054 114.680 C 275.743 114.362, 278.856 113.612, 279.971 113.015 C 282.197 111.824, 282.819 107.009, 280.750 106.986 C 280.063 106.979, 278.600 106.762, 277.500 106.504 C 276.400 106.247, 273.761 106.965, 271.635 108.101 M 198.621 112.340 C 198.336 113.431, 198.538 115.137, 199.070 116.132 C 199.884 117.651, 200.434 117.759, 202.519 116.809 C 206.401 115.040, 205.561 110.568, 201.320 110.428 C 199.950 110.383, 198.947 111.093, 198.621 112.340 M 226.598 112.163 C 225.765 113.353, 225.316 114.703, 225.601 115.163 C 226.535 116.675, 230.732 116.039, 233.139 114.020 C 235.154 112.331, 235.280 111.893, 234 111.036 C 231.510 109.367, 228.204 109.871, 226.598 112.163 M 251.793 110.540 C 251.496 110.838, 249.283 111.315, 246.876 111.600 C 237.298 112.738, 234.837 118.341, 242.809 120.863 C 246.590 122.060, 247.652 122.023, 251.478 120.562 C 253.876 119.646, 256.585 117.757, 257.497 116.364 C 259.049 113.995, 259.044 113.706, 257.423 111.915 C 255.766 110.084, 252.940 109.394, 251.793 110.540 M 176.212 112.064 C 173.854 112.528, 167.652 114.932, 162.431 117.406 C 152.002 122.346, 144.417 128.961, 137.684 138.987 C 133.438 145.311, 133.272 146, 136 146 C 137.100 146, 138 145.597, 138 145.104 C 138 143.810, 151.618 135.664, 157.500 133.439 C 161.335 131.988, 164.947 131.571, 173 131.647 C 182.769 131.739, 183.902 131.963, 189.273 134.873 C 192.447 136.593, 195.413 138, 195.862 138 C 197.256 138, 199.001 133.086, 198.985 129.203 C 198.965 124.263, 196.845 118.432, 193.582 114.343 C 191.142 111.284, 190.472 111.009, 185.707 111.110 C 182.843 111.170, 178.570 111.599, 176.212 112.064 M 208.416 118.477 C 207.498 122.136, 209.038 122.966, 216.782 122.985 C 222.382 122.998, 223.158 122.756, 223.928 120.750 C 225.176 117.496, 223.977 116.803, 216.123 116.241 C 209.142 115.741, 209.100 115.754, 208.416 118.477 M 272.557 117.582 C 270.935 118.768, 270.885 119, 272.250 119 C 273.148 119, 274.179 118.520, 274.541 117.933 C 275.601 116.218, 274.652 116.050, 272.557 117.582 M 227.553 118.915 C 227.204 119.478, 228.592 120.638, 230.637 121.493 C 233.603 122.732, 234.517 122.789, 235.161 121.773 C 235.604 121.073, 235.828 120.050, 235.656 119.500 C 235.232 118.136, 228.341 117.639, 227.553 118.915 M 251.079 123.265 C 248.326 124.669, 247.150 127, 249.194 127 C 250.949 127, 255 124.170, 255 122.943 C 255 121.692, 254.002 121.774, 251.079 123.265 M 239.667 125.667 C 238.605 126.729, 238.896 134, 240 134 C 241.912 134, 245 129.985, 245 127.500 C 245 125.548, 244.489 125, 242.667 125 C 241.383 125, 240.033 125.300, 239.667 125.667 M 257.459 129.067 C 256.539 130.556, 257.606 131.365, 259.520 130.631 C 260.404 130.292, 260.847 129.561, 260.504 129.007 C 259.694 127.696, 258.289 127.723, 257.459 129.067 M 318.750 144.662 C 319.438 144.940, 320.563 144.940, 321.250 144.662 C 321.938 144.385, 321.375 144.158, 320 144.158 C 318.625 144.158, 318.063 144.385, 318.750 144.662 M 311.503 147.617 C 308.754 149.028, 306.279 150.489, 306.003 150.864 C 305.726 151.239, 304.161 152.400, 302.525 153.444 C 298.488 156.018, 290.099 163.946, 288.756 166.456 C 288.156 167.578, 290.476 165.684, 293.912 162.248 C 297.348 158.812, 300.504 156, 300.924 156 C 301.345 156, 302.978 154.892, 304.554 153.538 C 306.129 152.185, 309.574 150.053, 312.209 148.802 C 314.844 147.551, 317 146.184, 317 145.764 C 317 144.755, 317.223 144.680, 311.503 147.617 M 115.967 162.126 C 94.276 171.837, 75.617 195.818, 74.780 215.061 L 74.560 220.113 86.442 231.342 C 97.294 241.597, 98.265 242.806, 97.643 245.285 C 97.268 246.778, 96.496 248, 95.928 248 C 94.871 248, 83.754 239.372, 78.698 234.629 C 77.158 233.183, 75.187 232, 74.319 232 C 70.737 232, 75.310 251.971, 81.688 264.185 C 85.551 271.582, 95.594 283, 98.237 283 C 99.167 283, 103.265 285.025, 107.341 287.500 C 111.418 289.975, 115.484 292, 116.377 292 C 117.269 292, 118 292.391, 118 292.870 C 118 293.891, 124.296 294.875, 135.587 295.618 C 145.599 296.278, 153.196 294.414, 165.919 288.176 C 173.915 284.257, 187.943 268.761, 191.426 260 C 192.410 257.525, 193.842 254.306, 194.608 252.846 C 195.374 251.386, 196 249.338, 196 248.296 C 196 247.253, 196.563 245.838, 197.250 245.150 C 198.153 244.247, 198.500 239.127, 198.500 226.700 L 198.500 209.500 194.762 200 C 190.721 189.730, 186.319 182.827, 180.312 177.341 C 178.215 175.425, 175.744 173.170, 174.819 172.327 C 173.895 171.485, 172.658 171.094, 172.069 171.457 C 171.481 171.821, 171 171.526, 171 170.802 C 171 169.108, 162.694 164.078, 158.627 163.310 C 156.907 162.985, 154.905 162.250, 154.177 161.676 C 153.408 161.070, 146.020 160.551, 136.522 160.435 C 122.381 160.262, 119.623 160.489, 115.967 162.126 M 383 163.647 C 383 164.003, 384.985 171.091, 387.411 179.397 C 389.837 187.704, 393.952 202.150, 396.555 211.500 C 401.562 229.480, 404.180 236, 406.392 236 C 407.135 236, 409.699 234.264, 412.091 232.142 C 416.989 227.794, 416.921 228.281, 415.216 210 C 414.242 199.558, 412.605 194.763, 406.678 185 C 401.227 176.020, 400.062 174.662, 392.485 168.451 C 386.542 163.580, 383 161.786, 383 163.647 M 172 175.059 C 172 175.641, 172.450 175.840, 173 175.500 C 173.550 175.160, 174 174.684, 174 174.441 C 174 174.198, 173.550 174, 173 174 C 172.450 174, 172 174.477, 172 175.059 M 176.154 187.848 C 176.720 189.306, 177.370 191.625, 177.597 193 C 177.949 195.129, 177.853 195.239, 176.952 193.743 C 176.369 192.777, 174.004 190.980, 171.696 189.750 C 168.251 187.914, 165.889 187.513, 158.500 187.507 C 150.141 187.501, 149.050 187.744, 143.180 190.927 C 136.820 194.375, 124 206.850, 124 209.590 C 124 210.333, 123.373 210.697, 122.601 210.400 C 121.832 210.105, 120.862 210.414, 120.447 211.086 C 119.941 211.905, 120.108 212.052, 120.952 211.529 C 121.921 210.931, 122.046 211.534, 121.491 214.125 C 121.094 215.981, 120.396 217.965, 119.941 218.534 C 119.199 219.462, 117.823 226.184, 116.367 236 C 116.032 238.257, 116.378 240.210, 117.342 241.499 C 118.793 243.438, 118.855 243.409, 119.454 240.499 C 122.130 227.506, 126.947 215.861, 131.923 210.352 C 140.072 201.332, 151.802 197.390, 160.250 200.830 C 162.657 201.811, 163 202.493, 163 206.301 C 163 211.912, 159.642 215.443, 154.446 215.296 C 150.164 215.174, 148.431 213.833, 146.828 209.402 C 146.152 207.531, 145.312 206, 144.961 206 C 143.650 206, 138.889 217.231, 137.875 222.719 C 136.664 229.268, 137.506 238.137, 139.751 242.499 C 141.590 246.070, 145.901 251.979, 148 253.805 C 154.350 259.328, 169.832 260.951, 177.515 256.898 C 183.030 253.988, 186.769 250.290, 189.545 245 L 191.907 240.500 191.953 244.250 C 192.038 251.046, 193.728 248.156, 194.440 240 C 195.253 230.678, 194.368 217.425, 192.503 211 C 190.363 203.624, 185.602 194.017, 184.083 194.008 C 183.304 194.004, 182.956 193.710, 183.311 193.356 C 184.120 192.547, 178.135 185.637, 176.404 185.383 C 175.420 185.239, 175.362 185.810, 176.154 187.848 M 308.382 194.909 C 305.162 196.872, 303.485 200.802, 304.500 204.001 C 305.726 207.864, 314.371 208.427, 318.597 204.920 C 320.692 203.181, 320.340 197.340, 318 195 C 315.493 192.493, 312.392 192.463, 308.382 194.909 M 226.250 219.031 C 225.012 219.529, 224 220.205, 224 220.535 C 224 220.865, 225.012 220.797, 226.250 220.385 C 227.488 219.972, 230.300 219.323, 232.500 218.942 L 236.500 218.250 232.500 218.189 C 230.300 218.155, 227.488 218.534, 226.250 219.031 M 247.813 218.683 C 248.534 218.972, 249.397 218.936, 249.729 218.604 C 250.061 218.272, 249.471 218.036, 248.417 218.079 C 247.252 218.127, 247.015 218.364, 247.813 218.683 M 424.667 219.667 C 423.495 220.838, 423.953 225.001, 425.250 224.978 C 427.370 224.940, 431.331 221.345, 430.585 220.137 C 429.824 218.906, 425.751 218.582, 424.667 219.667 M 220.813 221.683 C 221.534 221.972, 222.397 221.936, 222.729 221.604 C 223.061 221.272, 222.471 221.036, 221.417 221.079 C 220.252 221.127, 220.015 221.364, 220.813 221.683 M 226.994 226.885 C 219.069 229.452, 211.787 236.278, 210.135 242.688 C 209.594 244.785, 208.043 251, 206.688 256.500 C 205.333 262, 202.836 270.325, 201.140 275 C 199.444 279.675, 198.043 285.143, 198.028 287.152 C 198.003 290.371, 198.385 290.946, 201.250 291.999 C 203.037 292.656, 207.200 293.313, 210.500 293.458 C 213.800 293.604, 215.935 293.522, 215.244 293.276 C 214.553 293.030, 214.255 292.396, 214.583 291.866 C 214.946 291.278, 215.749 291.377, 216.645 292.121 C 217.453 292.791, 217.975 292.902, 217.806 292.368 C 217.638 291.835, 220.088 288.764, 223.250 285.545 C 226.412 282.326, 229 279.097, 229 278.369 C 229 277.642, 230.130 276.306, 231.511 275.401 C 232.892 274.496, 235.255 271.561, 236.761 268.879 C 238.267 266.197, 239.838 264.002, 240.250 264.001 C 240.662 264, 241 263.072, 241 261.938 C 241 259.072, 245.801 249.052, 248.722 245.822 C 250.054 244.349, 252.124 242.078, 253.322 240.774 C 255.964 237.900, 258.220 233.164, 257.500 232.001 C 257.212 231.534, 257.769 230.991, 258.738 230.795 C 260.065 230.526, 259.636 229.972, 257 228.550 C 254.242 227.062, 250.957 226.600, 241.500 226.368 C 234.900 226.205, 228.372 226.438, 226.994 226.885 M 357 233.985 C 357 236, 347.537 244.075, 342.113 246.690 C 336.084 249.596, 327.204 250.336, 318 248.700 L 313.500 247.901 316.196 250.356 C 318.937 252.852, 324.542 254.459, 334.664 255.648 C 339.663 256.236, 340.410 256.627, 341.365 259.155 C 342.267 261.545, 343.003 261.998, 345.969 261.989 C 352.516 261.969, 357.038 260.743, 359.275 258.382 C 360.499 257.091, 362.625 256.020, 364 256.002 C 365.668 255.980, 366.075 255.700, 365.223 255.159 C 364.521 254.714, 360.986 254.746, 357.368 255.230 C 353.750 255.715, 349.825 255.923, 348.645 255.692 C 347.418 255.452, 348.079 255.214, 350.191 255.136 C 352.221 255.061, 354.160 254.550, 354.500 254 C 354.840 253.450, 356.415 253, 358 253 C 359.585 253, 361.139 252.585, 361.452 252.077 C 361.766 251.569, 363.337 250.865, 364.942 250.513 C 368.379 249.758, 371.244 246.925, 369.250 246.254 C 368.563 246.023, 368 245.244, 368 244.524 C 368 243.803, 367.316 242.952, 366.480 242.631 C 365.645 242.310, 364.010 240.437, 362.848 238.468 C 361.616 236.378, 360.187 235.098, 359.419 235.393 C 358.583 235.714, 358.305 235.369, 358.658 234.449 C 358.964 233.652, 358.716 233, 358.107 233 C 357.498 233, 357 233.443, 357 233.985 M 410.689 243.269 C 409.615 244.368, 409.005 246.214, 409.189 247.811 C 409.493 250.441, 409.540 250.417, 411.318 246.705 C 413.479 242.196, 413.204 240.696, 410.689 243.269 M 219.061 246.427 C 218.261 247.390, 218.374 248.065, 219.488 248.990 C 220.319 249.680, 221 250.865, 221 251.622 C 221 253.249, 222.602 253.452, 223.535 251.943 C 224.502 250.379, 223.233 246.303, 221.582 245.670 C 220.792 245.367, 219.658 245.707, 219.061 246.427 M 387 276 C 386.175 276.533, 385.950 276.969, 386.500 276.969 C 387.050 276.969, 388.175 276.533, 389 276 C 389.825 275.467, 390.050 275.031, 389.500 275.031 C 388.950 275.031, 387.825 275.467, 387 276 M 379.093 280.574 C 376.669 281.908, 375.319 282.986, 376.093 282.969 C 376.867 282.952, 379.300 281.829, 381.500 280.474 C 386.623 277.319, 384.876 277.391, 379.093 280.574 M 369.500 285 C 368.239 285.542, 368.055 285.859, 369 285.859 C 369.825 285.859, 371.400 285.473, 372.500 285 C 373.761 284.458, 373.945 284.141, 373 284.141 C 372.175 284.141, 370.600 284.527, 369.500 285 M 181.793 287.750 C 176.673 293.173, 163.573 301, 159.614 301 C 158.791 301, 157.879 301.387, 157.587 301.859 C 157.295 302.331, 154.006 303.026, 150.278 303.403 C 146.550 303.780, 141.788 304.598, 139.695 305.219 C 136.832 306.070, 134.726 306.056, 131.195 305.166 C 123.263 303.165, 113.293 302.793, 112.649 304.473 C 112.203 305.635, 112.583 305.729, 114.613 304.957 C 117.792 303.748, 118.943 303.750, 117.029 304.961 C 116.220 305.473, 115.872 306.205, 116.255 306.588 C 116.638 306.971, 117.566 306.775, 118.318 306.151 C 120.080 304.688, 121.328 305.900, 119.869 307.658 C 118.312 309.534, 119.518 309.339, 121.456 307.401 C 122.709 306.148, 123.365 306.058, 124.480 306.983 C 125.268 307.638, 126.851 307.865, 128.026 307.492 C 129.193 307.121, 131.489 307.374, 133.129 308.054 C 135.368 308.981, 136.396 309.004, 137.256 308.144 C 138.913 306.487, 141.324 306.714, 140.652 308.463 C 140.181 309.693, 141.320 309.853, 147.795 309.464 C 159.093 308.785, 160.755 308.579, 161.583 307.750 C 161.996 307.337, 163.185 307, 164.226 307 C 165.266 307, 165.898 306.644, 165.629 306.209 C 165.360 305.774, 166.571 305.576, 168.320 305.769 C 170.770 306.040, 172.260 305.418, 174.812 303.060 C 176.633 301.377, 178.546 300, 179.062 300 C 179.578 300, 180 299.190, 180 298.200 C 180 297.210, 180.540 295.860, 181.200 295.200 C 182.133 294.267, 182.133 294, 181.200 294 C 180.540 294, 180 293.564, 180 293.031 C 180 292.499, 180.630 292.305, 181.400 292.600 C 182.175 292.898, 182.775 292.549, 182.743 291.819 C 182.600 288.571, 183.078 286.930, 184 287.500 C 184.550 287.840, 185 287.641, 185 287.059 C 185 285.485, 183.658 285.774, 181.793 287.750 M 362.750 287.662 C 363.438 287.940, 364.563 287.940, 365.250 287.662 C 365.938 287.385, 365.375 287.158, 364 287.158 C 362.625 287.158, 362.063 287.385, 362.750 287.662 M 213 289.031 C 213 289.564, 213.675 290, 214.500 290 C 215.325 290, 216 289.823, 216 289.607 C 216 289.391, 215.325 288.955, 214.500 288.638 C 213.675 288.322, 213 288.499, 213 289.031 M 355.500 289 C 353.592 289.820, 353.603 289.863, 355.750 289.930 C 356.988 289.968, 358 289.550, 358 289 C 358 288.450, 357.887 288.032, 357.750 288.070 C 357.613 288.109, 356.600 288.527, 355.500 289 M 193.167 296.533 C 191.528 300.131, 191.703 301.703, 194 304 C 195.100 305.100, 196.113 305.960, 196.250 305.911 C 198.669 305.054, 205 304.492, 205 305.134 C 205 306.599, 210.679 306.091, 211.992 304.510 C 212.758 303.587, 214.233 303.208, 215.864 303.516 C 217.314 303.789, 217.935 303.746, 217.244 303.421 C 216.553 303.095, 216.184 302.511, 216.424 302.122 C 216.665 301.733, 216.036 301.353, 215.028 301.277 C 214.020 301.201, 209.888 299.794, 205.847 298.150 C 194.706 293.619, 194.506 293.593, 193.167 296.533 M 109.510 302.016 C 109.856 302.575, 110.557 302.774, 111.069 302.457 C 112.456 301.600, 112.198 301, 110.441 301 C 109.584 301, 109.165 301.457, 109.510 302.016 M 210 303 C 208.707 303.835, 208.734 303.971, 210.191 303.985 C 211.121 303.993, 212.160 303.550, 212.500 303 C 213.282 301.734, 211.958 301.734, 210 303 M 221.750 303.662 C 222.438 303.940, 223.563 303.940, 224.250 303.662 C 224.938 303.385, 224.375 303.158, 223 303.158 C 221.625 303.158, 221.063 303.385, 221.750 303.662 M 159.564 305.293 C 159.940 306.279, 160.499 306.834, 160.807 306.526 C 161.115 306.219, 160.808 305.412, 160.124 304.733 C 159.136 303.753, 159.022 303.868, 159.564 305.293 M 211.621 391.540 C 210.516 396.426, 207.312 400.841, 203.781 402.345 C 200.255 403.846, 195.283 408.616, 196.243 409.576 C 197.397 410.730, 212.299 414.102, 214.930 413.804 L 217.619 413.500 216.268 404.142 C 215.525 398.995, 214.331 393.370, 213.613 391.642 L 212.309 388.500 211.621 391.540" stroke="none" fill="black" fill-rule="evenodd"/>
</svg>